<?xml version="1.0" encoding="UTF-8"?>
<svg width="24px" height="24px" viewBox="0 0 24 24" version="1.1" xmlns="http://www.w3.org/2000/svg" xmlns:xlink="http://www.w3.org/1999/xlink">
    <!-- Generator: Sketch 50 (54983) - http://www.bohemiancoding.com/sketch -->
    <title>Combined Shape</title>
    <desc>Created with Sketch.</desc>
    <defs></defs>
    <g id="Symbols" stroke="none" stroke-width="1" fill="none" fill-rule="evenodd">
        <g id="menu" transform="translate(-20.000000, -33.000000)" fill="#FFFFFF">
            <g id="logo">
                <g transform="translate(17.000000, 30.000000)">
                    <path d="M26.7385188,14.3641023 C27.0871604,14.7129558 27.0871604,15.2786296 26.7385188,15.6275746 C26.3898773,15.976245 25.8244557,15.976245 25.4759056,15.6275746 C25.1272641,15.2786296 25.1272641,14.7129558 25.4759056,14.3641023 C25.8244557,14.0151572 26.3898773,14.0151572 26.7385188,14.3641023 Z M23.480102,10.3060203 C22.6246033,11.1621307 21.334538,11.3175124 20.3207323,10.7733559 L18.0636214,13.031839 C18.9728346,14.4443752 18.8103182,16.3472292 17.5746996,17.583599 C16.3386235,18.8204267 14.436102,18.9827672 13.024241,18.0718108 L10.7746336,20.3227858 C11.0963721,20.9227956 11.1730549,21.6192207 11.0052311,22.265378 L13.5912182,23.6054882 C13.5927738,23.6038401 13.5941464,23.6021004 13.595702,23.6004523 C14.3729622,22.8227195 15.6331047,22.8227195 16.4103649,23.6004523 C16.5472593,23.7374299 16.6586233,23.8899732 16.7472936,24.0516728 L21.07841,22.5970177 C21.0465656,22.1982626 21.1822704,21.7887031 21.4870802,21.4837081 C22.0390502,20.9314024 22.9340799,20.9313109 23.4861415,21.4837081 C24.038203,22.0361052 24.038203,22.9317706 23.4861415,23.4840762 C22.9341714,24.0363818 22.0390502,24.0364734 21.4870802,23.4840762 C21.4211951,23.4181511 21.3637288,23.3471901 21.313583,23.2726582 L16.9716687,24.7309757 C17.0553061,25.3286964 16.8697299,25.9570905 16.4103649,26.4167348 C15.6331047,27.194376 14.3729622,27.1944675 13.5957935,26.4167348 C13.1194082,25.9400599 12.9363943,25.282091 13.0440065,24.6646844 L10.4550912,23.3231092 C10.4082397,23.3781383 10.3596495,23.4320687 10.3076735,23.4840762 C9.26184033,24.5306368 7.56594164,24.5306368 6.51992545,23.4840762 C5.47400077,22.4374241 5.47400077,20.740586 6.51992545,19.6940254 C7.37542413,18.8380067 8.6654894,18.6824418 9.67929514,19.2267815 L11.92936,16.9752571 C11.0211534,15.562904 11.1838528,13.6609656 12.4191054,12.4249621 C13.6548155,11.1885923 15.5565134,11.0258855 16.9681914,11.9357431 L19.2253024,9.67725995 C18.9036554,9.07725022 18.826881,8.38091664 18.9947048,7.73466779 L16.4088093,6.39455756 C16.4071622,6.39620568 16.4057896,6.39794537 16.404234,6.3995935 C15.6270652,7.17723468 14.3668312,7.17723468 13.5896625,6.3995935 C13.4527681,6.26261585 13.3413126,6.11007255 13.2526424,5.948373 L8.92161742,7.40302805 C8.95337034,7.80178318 8.817757,8.2113427 8.51294728,8.51633773 C7.96097723,9.06864334 7.06594755,9.06864334 6.51379449,8.51624616 C5.96182444,7.96394055 5.96182444,7.06836674 6.51379449,6.51596957 C7.06585604,5.96357239 7.96088573,5.96357239 8.51294728,6.51596957 C8.5787408,6.58180308 8.63620717,6.65294722 8.68635299,6.72738761 L13.0283588,5.2689785 C12.9446299,4.67134939 13.1302975,4.04304682 13.5896625,3.583311 C14.3668312,2.80557826 15.6270652,2.80557826 16.4041424,3.58321944 C16.8806192,4.05989434 17.0635417,4.71804632 16.956021,5.33526982 L19.5449362,6.67693662 C19.5916963,6.6219075 19.640378,6.56788556 19.6922624,6.515878 C20.7381871,5.46950059 22.4340858,5.46940903 23.480102,6.51596957 C24.5260267,7.5625301 24.5260267,9.2594598 23.480102,10.3060203 Z M3.26148117,14.3725078 C3.61012273,14.0236542 4.1754528,14.0236542 4.52409436,14.3725078 C4.87273592,14.7214528 4.87273592,15.287035 4.52409436,15.6359801 C4.1754528,15.984742 3.61012273,15.984742 3.26148117,15.6359801 C2.91283961,15.287035 2.91283961,14.7214528 3.26148117,14.3725078 Z" id="Combined-Shape"></path>
                </g>
            </g>
        </g>
    </g>
</svg>