<?xml version="1.0" encoding="UTF-8"?>
<svg width="17px" height="15px" viewBox="0 0 17 15" version="1.1" xmlns="http://www.w3.org/2000/svg" xmlns:xlink="http://www.w3.org/1999/xlink">
    <!-- Generator: Sketch 50 (54983) - http://www.bohemiancoding.com/sketch -->
    <title>报警监控</title>
    <desc>Created with Sketch.</desc>
    <defs>
        <polygon id="path-1" points="16.2554681 0 0.0011038961 0 0.0011038961 13.2603333 16.2554681 13.2603333 16.2554681 4.44707586e-15"></polygon>
    </defs>
    <g id="Symbols" stroke="none" stroke-width="1" fill="none" fill-rule="evenodd">
        <g id="menu" transform="translate(-24.000000, -178.000000)">
            <g id="btn">
                <g transform="translate(17.000000, 107.000000)">
                    <g id="搜索" transform="translate(0.000000, 64.000000)">
                        <g id="报警监控" transform="translate(7.000000, 7.000000)">
                            <path d="M12.9894079,15 L3.01051703,15 C2.45245603,15 2,14.5522696 2,14.0000371 C2,13.4477304 2.45245603,13 3.01051703,13 L12.9894642,13 C13.547544,13 14,13.4477304 14,14.0000371 C13.999925,14.5522696 13.5474689,15 12.9894079,15 Z" id="Fill-1" fill="#FFFFFF"></path>
                            <g id="Group-5">
                                <mask id="mask-2" fill="white">
                                    <use xlink:href="#path-1"></use>
                                </mask>
                                <g id="Clip-3"></g>
                                <path d="M8.15540043,3.73333333 C5.63454329,3.73333333 3.57206061,5.88114133 3.57206061,8.50626766 L3.57206061,13.0666667 L12.7387219,13.0666667 L12.7387219,8.50626766 C12.7387219,5.88114133 10.6761656,3.73333333 8.15540043,3.73333333 Z" id="Fill-2" fill="#FFFFFF" mask="url(#mask-2)"></path>
                                <path d="M8.15540043,2.67559091 C7.90420887,2.67559091 7.70061364,2.47437273 7.70061364,2.22622727 L7.70061364,0.449518182 C7.70061364,0.288936364 7.78728788,0.140572727 7.92799784,0.0602454545 C8.06872619,-0.0200818182 8.24205628,-0.0200818182 8.38278463,0.0602454545 C8.52349459,0.140572727 8.61016883,0.288936364 8.61009524,0.449518182 L8.61009524,2.22622727 C8.61009524,2.47437273 8.4065,2.67559091 8.15540043,2.67559091 Z M4.00679329,4.32388182 C3.88613745,4.32402727 3.77043074,4.27664545 3.68526515,4.19228182 L2.41390801,2.93602727 C2.23934524,2.76002727 2.24070671,2.47793636 2.41699892,2.30364545 C2.59336472,2.12935455 2.87883225,2.12793636 3.05690909,2.30037273 L4.32819264,3.5567 C4.4582684,3.68517273 4.49723593,3.8785 4.42686255,4.04639091 C4.35650758,4.21437273 4.19070238,4.32380909 4.00679329,4.32388182 Z M2.25264719,8.38851818 L0.454786797,8.38851818 C0.29229329,8.38851818 0.14216342,8.30286364 0.0609350649,8.16379091 C-0.0203300866,8.02473636 -0.0203300866,7.85342727 0.0609350649,7.71437273 C0.14216342,7.5753 0.29229329,7.48964545 0.454786797,7.48964545 L2.25264719,7.48964545 C2.41514069,7.48964545 2.56527056,7.5753 2.64648052,7.71437273 C2.72769048,7.85342727 2.72769048,8.02473636 2.64648052,8.16379091 C2.56527056,8.30286364 2.41514069,8.38851818 2.25264719,8.38851818 Z M12.2486472,4.32388182 C12.0647381,4.32388182 11.8989329,4.21437273 11.8285779,4.04646364 C11.7582229,3.8785 11.7970985,3.68517273 11.9271742,3.5567 L13.1984578,2.30037273 C13.376553,2.12793636 13.6620022,2.12935455 13.838368,2.30364545 C14.0146602,2.47793636 14.0160952,2.76002727 13.8414589,2.93602727 L12.5701937,4.19228182 C12.4850281,4.27664545 12.3693214,4.32402727 12.2486472,4.32388182 Z M15.8007273,8.38851818 L14.0028117,8.38851818 C13.8403182,8.38851818 13.6901883,8.30286364 13.6089784,8.16379091 C13.52775,8.02473636 13.52775,7.85342727 13.6089784,7.71437273 C13.6901883,7.5753 13.8403182,7.48964545 14.0028117,7.48964545 L15.8007273,7.48964545 C15.9631656,7.48964545 16.1132955,7.5753 16.1945054,7.71437273 C16.275789,7.85342727 16.275789,8.02473636 16.1945054,8.16379091 C16.1132955,8.30286364 15.9631656,8.38851818 15.8007273,8.38851818 Z" id="Fill-4" fill="#FFFFFF" mask="url(#mask-2)"></path>
                            </g>
                        </g>
                    </g>
                </g>
            </g>
        </g>
    </g>
</svg>